<svg xmlns="http://www.w3.org/2000/svg" xmlns:xlink="http://www.w3.org/1999/xlink" viewBox="0,0,256,256" width="64px" height="64px" fill-rule="nonzero"><defs><linearGradient x1="256" y1="18.711" x2="256" y2="486.844" gradientUnits="userSpaceOnUse" id="color-1"><stop offset="0" stop-color="#000000"></stop><stop offset="1" stop-color="#000000"></stop></linearGradient></defs><g fill="url(#color-1)" fill-rule="nonzero" stroke="none" stroke-width="1" stroke-linecap="butt" stroke-linejoin="miter" stroke-miterlimit="10" stroke-dasharray="" stroke-dashoffset="0" font-family="none" font-weight="none" font-size="none" text-anchor="none" style="mix-blend-mode: normal"><g transform="scale(0.5,0.5)"><path d="M452.869,154.795c0.00006,-2.58364 -1.24763,-5.00826 -3.35,-6.51l-188.87,-134.894c-2.78162,-1.98693 -6.51838,-1.98693 -9.3,0l-188.868,134.894c-2.10248,1.50168 -3.35028,3.92631 -3.35028,6.51c0,2.58369 1.2478,5.00832 3.35028,6.51l38.119,27.225l-38.119,27.225c-2.10248,1.50168 -3.35028,3.92631 -3.35028,6.51c0,2.58369 1.2478,5.00832 3.35028,6.51l38.119,27.225l-38.119,27.225c-2.10248,1.50168 -3.35028,3.92631 -3.35028,6.51c0,2.58369 1.2478,5.00832 3.35028,6.51l38.119,27.225l-38.119,27.23c-2.10248,1.50168 -3.35028,3.92631 -3.35028,6.51c0,2.58369 1.2478,5.00832 3.35028,6.51l188.87,134.894c2.78162,1.98693 6.51838,1.98693 9.3,0l188.87,-134.894c2.10248,-1.50168 3.35028,-3.92631 3.35028,-6.51c0,-2.58369 -1.2478,-5.00832 -3.35028,-6.51l-38.121,-27.23l38.119,-27.225c2.10248,-1.50168 3.35028,-3.92631 3.35028,-6.51c0,-2.58369 -1.2478,-5.00832 -3.35028,-6.51l-38.119,-27.225l38.119,-27.225c2.10248,-1.50168 3.35028,-3.92631 3.35028,-6.51c0,-2.58369 -1.2478,-5.00832 -3.35028,-6.51l-38.119,-27.225l38.119,-27.225c2.10237,-1.50174 3.35006,-3.92636 3.35,-6.51zM431.1,357.205l-175.1,125.063l-175.1,-125.063l33.468,-23.9l136.987,97.838c2.78162,1.98693 6.51838,1.98693 9.3,0l136.981,-97.843zM431.1,289.735l-175.1,125.065l-175.1,-125.065l33.468,-23.9l136.987,97.838c2.78162,1.98693 6.51838,1.98693 9.3,0l136.987,-97.838zM431.1,222.265l-175.1,125.063l-175.1,-125.063l33.468,-23.9l136.983,97.835c2.78162,1.98693 6.51838,1.98693 9.3,0l136.987,-97.838zM256,279.857l-175.1,-125.062l175.1,-125.063l175.1,125.063z"></path></g></g></svg>