<?xml version="1.0"?><svg xmlns="http://www.w3.org/2000/svg"  viewBox="0 0 50 50" width="50px" height="50px">    <path d="M 25 3 C 15.63 3 8 10.63 8 20 L 8 26 L 10 26 L 10 20 C 10 11.73 16.73 5 25 5 C 29.72 5 34.189766 7.2495312 37.009766 11.019531 C 35.699766 12.709531 34.060625 15.270469 31.890625 18.980469 L 37.050781 24.169922 C 38.190781 22.119922 39.149219 20.350547 39.949219 18.810547 C 39.979219 19.210547 40 19.6 40 20 L 40 26 L 42 26 L 42 20 C 42 18.9 41.830234 17.050156 41.490234 15.660156 C 43.484234 11.250156 43.397109 9.1897656 41.787109 8.2597656 C 40.727109 7.6497656 39.729609 8.1402344 38.349609 9.4902344 C 35.149609 5.4102344 30.21 3 25 3 z M 17 10 C 16.4 10 16 10.4 16 11 L 16 19.099609 C 14.8 19.499609 12 20.7 12 26 L 24 26 C 24 20.8 21.2 19.499609 20 19.099609 L 20 11 C 20 10.4 19.6 10 19 10 L 17 10 z M 40 14 C 39.65 14.68 39.199297 15.37 38.279297 15.5 C 37.349297 15.63 37.019141 14.810859 37.369141 14.130859 L 40 14 z M 28.009766 18 L 24.46875 20.101562 C 25.36875 21.431562 26 23.35 26 26 L 35.988281 26 L 28.009766 18 z M 37.759766 18 C 37.419766 18.68 36.959063 19.37 36.039062 19.5 C 35.119062 19.63 34.790859 18.810859 35.130859 18.130859 L 37.759766 18 z M 7 28 C 5.9 28 5 28.9 5 30 C 5 31.1 5.9 32 7 32 L 8.0292969 32 C 8.3892969 38.35 12.120547 44.250391 17.560547 46.900391 C 17.700547 46.970391 17.85 47 18 47 L 32 47 C 32.15 47 32.299453 46.970391 32.439453 46.900391 C 37.879453 44.250391 41.610703 38.35 41.970703 32 L 43 32 C 44.1 32 45 31.1 45 30 C 45 28.9 44.1 28 43 28 L 7 28 z M 29 34 L 36 34 C 36.55 34 37 34.45 37 35 C 37 35.55 36.55 36 36 36 L 29 36 C 28.45 36 28 35.55 28 35 C 28 34.45 28.45 34 29 34 z M 16 37 L 23 37 C 23.55 37 24 37.45 24 38 C 24 38.55 23.55 39 23 39 L 16 39 C 15.45 39 15 38.55 15 38 C 15 37.45 15.45 37 16 37 z M 27 41 L 31 41 C 31.55 41 32 41.45 32 42 C 32 42.55 31.55 43 31 43 L 27 43 C 26.45 43 26 42.55 26 42 C 26 41.45 26.45 41 27 41 z"/></svg>