<?xml version="1.0"?><svg fill="#000000" xmlns="http://www.w3.org/2000/svg"  viewBox="0 0 24 24" width="24px" height="24px">    <path d="M 13.9375 2 C 13.4095 2.008 13 2.4700469 13 2.9980469 L 13 15 C 12.999 16.101 13.892187 16.997047 14.992188 16.998047 L 14.992188 17.001953 C 14.995188 17.001953 14.998 17 15 17 C 15.552 17 16 17.448 16 18 C 16 18.552 15.552 19 15 19 C 14.996 19 14.992281 18.998047 14.988281 18.998047 C 14.260281 18.997047 13.588 18.786359 13 18.443359 L 13 20.964844 C 13 21.460844 13.360516 21.896984 13.853516 21.958984 C 14.066516 21.985984 14.282 22 14.5 22 C 17.134 22 19.372047 20.1205 19.873047 17.5625 C 21.229047 16.4175 22 14.778 22 13 C 22 11.595 21.490906 10.266797 20.628906 9.2167969 C 20.260906 10.317797 19.628438 11.317141 18.773438 12.119141 C 18.328437 12.536141 17.604578 12.432781 17.267578 11.925781 C 16.995578 11.516781 17.069734 10.979578 17.427734 10.642578 C 18.235734 9.8805781 18.764547 8.8694844 18.935547 7.7714844 C 19.030547 7.2114844 19.022156 6.6577969 18.910156 6.0917969 C 18.588156 4.4547969 17.431531 3.0464844 15.894531 2.3964844 C 15.226531 2.1124844 14.5725 1.992 13.9375 2 z M 10.042969 2.0234375 C 8.7329687 2.0044375 7.4348437 2.4948438 6.4648438 3.4648438 C 5.4628438 4.4658438 4.9557656 5.8049219 5.0097656 7.1699219 C 5.0107656 7.1909219 5.0126719 7.2094688 5.0136719 7.2304688 C 5.0236719 7.4134687 5.0403125 7.59825 5.0703125 7.78125 C 5.0703125 7.78125 5.0683594 7.78125 5.0683594 7.78125 C 5.2413594 8.87525 5.7672656 9.880625 6.5722656 10.640625 C 6.9292656 10.977625 7.0044219 11.515781 6.7324219 11.925781 C 6.3944219 12.433781 5.6735156 12.536141 5.2285156 12.119141 C 4.3725156 11.318141 3.7400469 10.318797 3.3730469 9.2167969 C 2.5100469 10.267797 2 11.596 2 13 C 2 14.778 2.7709531 16.4175 4.1269531 17.5625 C 4.6279531 20.1205 6.866 22 9.5 22 C 9.718 22 9.9334844 21.985984 10.146484 21.958984 C 10.639484 21.896984 11 21.460844 11 20.964844 L 11 15.441406 C 10.411 15.786406 9.7358594 15.997047 9.0058594 15.998047 C 9.0038594 15.998047 9.002 16 9 16 C 8.448 16 8 15.552 8 15 C 8 14.448 8.448 14 9 14 L 9.0019531 14 L 9.0019531 13.998047 C 10.100953 13.998047 11 13.099 11 12 L 11 3.0273438 C 11 2.4913437 10.577969 2.0304375 10.042969 2.0234375 z"/></svg>