<?xml version="1.0"?><svg xmlns="http://www.w3.org/2000/svg"  viewBox="0 0 50 50" width="50px" height="50px">    <path d="M 18 2 C 15.243 2 13 4.243 13 7 C 13 9.757 15.243 12 18 12 C 18.406969 12 18.796774 11.93789 19.175781 11.845703 L 20.009766 13.619141 C 16.423894 15.696553 14 19.565951 14 24 C 14 25.144401 14.172095 26.247758 14.472656 27.296875 L 11.201172 28.308594 C 10.311042 26.924194 8.7646181 26 7 26 C 4.243 26 2 28.243 2 31 C 2 33.757 4.243 36 7 36 C 9.757 36 12 33.757 12 31 C 12 30.719865 11.972236 30.447396 11.927734 30.179688 L 15.189453 29.171875 C 16.716674 32.350673 19.595668 34.75134 23.083984 35.626953 L 22.785156 38.009766 C 20.12829 38.123627 18 40.315606 18 43 C 18 45.757 20.243 48 23 48 C 25.757 48 28 45.757 28 43 C 28 40.864925 26.649073 39.051479 24.761719 38.335938 L 25.060547 35.951172 C 25.371693 35.975467 25.682722 36 26 36 C 29.352187 36 32.383157 34.614232 34.5625 32.390625 L 38.587891 35.697266 C 38.224771 36.389688 38 37.165413 38 38 C 38 40.757 40.243 43 43 43 C 45.757 43 48 40.757 48 38 C 48 35.243 45.757 33 43 33 C 41.801309 33 40.715775 33.442534 39.853516 34.148438 L 35.837891 30.851562 C 37.196279 28.906888 38 26.546895 38 24 C 38 21.050949 36.925447 18.351312 35.154297 16.259766 L 38.248047 13.166016 C 39.038546 13.689985 39.982644 14 41 14 C 43.757 14 46 11.757 46 9 C 46 6.243 43.757 4 41 4 C 38.243 4 36 6.243 36 9 C 36 10.017356 36.310015 10.961454 36.833984 11.751953 L 33.740234 14.845703 C 31.648688 13.074553 28.949051 12 26 12 C 24.528241 12 23.124324 12.280626 21.820312 12.767578 L 20.982422 10.988281 C 22.199464 10.075427 23 8.6349711 23 7 C 23 4.243 20.757 2 18 2 z M 26 17 C 26.926 17 27.6845 17.252766 27.9375 17.759766 C 29.4685 17.951766 29.99 19.28 30 20.5 C 30.008 21.428 29.932 22.24 29.75 22.75 C 29.918 22.834 30.084 23.244 30 23.75 C 29.832 24.678 29.253 25 29 25 C 28.916 25.844 28.337 27.081 28 27.25 L 28 29 C 28.54 30.297 31.134797 30.287578 32.716797 31.392578 C 30.940797 33.006578 28.589 34 26 34 C 23.411 34 21.059203 33.006578 19.283203 31.392578 C 20.865203 30.287578 23.46 30.297 24 29 L 24 27.25 C 23.663 27.081 23.084 25.844 23 25 C 22.747 25 22.084 24.678 22 23.75 C 21.916 23.244 22.082 22.834 22.25 22.75 C 22.049 22.004 22.005 21.286 22 20.625 C 21.985 18.521 23.241 17 26 17 z"/></svg>