<svg xmlns="http://www.w3.org/2000/svg"  viewBox="0 0 50 50" width="50px" height="50px"><path d="M 24.5 4 C 19.804688 4 16 7.804688 16 12.5 C 16 14.300781 16.5625 15.964844 17.515625 17.339844 C 17.523438 17.347656 17.53125 17.359375 17.539063 17.371094 C 17.730469 17.640625 17.933594 17.898438 18.15625 18.140625 C 20.324219 21.367188 18.390625 26.09375 14.316406 26.703125 C 14.316406 26.703125 12.484375 27.011719 11.671875 27.011719 C 11.613281 27.011719 11.558594 27 11.5 27 C 6.804688 27 3 30.804688 3 35.5 C 3 40.195313 6.804688 44 11.5 44 C 14.539063 44 17.199219 42.398438 18.703125 40 L 18.707031 40 L 18.71875 39.96875 C 19.183594 39.21875 19.535156 38.398438 19.75 37.515625 L 19.78125 37.4375 C 21.722656 32.8125 28.277344 32.8125 30.21875 37.4375 L 30.25 37.519531 C 30.464844 38.398438 30.8125 39.21875 31.277344 39.96875 L 31.292969 40 L 31.296875 40 C 32.800781 42.398438 35.460938 44 38.5 44 C 43.195313 44 47 40.195313 47 35.5 C 47 30.804688 43.195313 27 38.5 27 C 37.304688 27 34.894531 26.59375 34.894531 26.59375 C 30.566406 25.894531 28.648438 20.757813 31.4375 17.394531 C 32.417969 16.011719 33 14.324219 33 12.5 C 33 7.804688 29.195313 4 24.5 4 Z M 24.5 7 C 27.53125 7 30 9.46875 30 12.5 C 30 15.53125 27.53125 18 24.5 18 C 21.46875 18 19 15.53125 19 12.5 C 19 9.46875 21.46875 7 24.5 7 Z M 24.5 9 C 22.570313 9 21 10.570313 21 12.5 C 21 14.429688 22.570313 16 24.5 16 C 26.429688 16 28 14.429688 28 12.5 C 28 10.570313 26.429688 9 24.5 9 Z M 24.5 11 C 25.328125 11 26 11.671875 26 12.5 C 26 13.328125 25.328125 14 24.5 14 C 23.671875 14 23 13.328125 23 12.5 C 23 11.671875 23.671875 11 24.5 11 Z M 24.5 24 C 25.882813 24 27 25.117188 27 26.5 C 27 27.882813 25.882813 29 24.5 29 C 23.117188 29 22 27.882813 22 26.5 C 22 25.117188 23.117188 24 24.5 24 Z M 11.5 30 C 14.53125 30 17 32.46875 17 35.5 C 17 38.53125 14.53125 41 11.5 41 C 8.46875 41 6 38.53125 6 35.5 C 6 32.46875 8.46875 30 11.5 30 Z M 38.5 30 C 41.53125 30 44 32.46875 44 35.5 C 44 38.53125 41.53125 41 38.5 41 C 35.46875 41 33 38.53125 33 35.5 C 33 32.46875 35.46875 30 38.5 30 Z M 11.5 32 C 9.570313 32 8 33.570313 8 35.5 C 8 37.429688 9.570313 39 11.5 39 C 13.429688 39 15 37.429688 15 35.5 C 15 33.570313 13.429688 32 11.5 32 Z M 38.5 32 C 36.570313 32 35 33.570313 35 35.5 C 35 37.429688 36.570313 39 38.5 39 C 40.429688 39 42 37.429688 42 35.5 C 42 33.570313 40.429688 32 38.5 32 Z M 11.5 34 C 12.328125 34 13 34.671875 13 35.5 C 13 36.328125 12.328125 37 11.5 37 C 10.671875 37 10 36.328125 10 35.5 C 10 34.671875 10.671875 34 11.5 34 Z M 38.5 34 C 39.328125 34 40 34.671875 40 35.5 C 40 36.328125 39.328125 37 38.5 37 C 37.671875 37 37 36.328125 37 35.5 C 37 34.671875 37.671875 34 38.5 34 Z"/></svg>