<svg xmlns="http://www.w3.org/2000/svg"  viewBox="0 0 50 50" width="50px" height="50px"><path d="M 10 8.5 C 4.398438 8.5 0 12.898438 0 18.5 C 0 23.574219 3.625 27.652344 8.46875 28.375 C 8.15625 29.355469 8 30.40625 8 31.5 C 8 37.101563 12.398438 41.5 18 41.5 C 20.75 41.5 23.207031 40.433594 25 38.6875 C 26.792969 40.433594 29.25 41.5 32 41.5 C 37.601563 41.5 42 37.101563 42 31.5 C 42 30.40625 41.84375 29.355469 41.53125 28.375 C 46.375 27.652344 50 23.574219 50 18.5 C 50 12.898438 45.601563 8.5 40 8.5 C 36.980469 8.5 34.320313 9.785156 32.5 11.84375 C 30.679688 9.785156 28.019531 8.5 25 8.5 C 21.980469 8.5 19.320313 9.785156 17.5 11.84375 C 15.679688 9.785156 13.019531 8.5 10 8.5 Z M 10 12.5 C 12.414063 12.5 14.410156 13.804688 15.375 15.78125 C 15.136719 16.644531 15 17.550781 15 18.5 C 15 19.449219 15.136719 20.355469 15.375 21.21875 C 15.257813 21.460938 15.148438 21.714844 15 21.9375 C 14.996094 21.941406 14.972656 21.933594 14.96875 21.9375 C 13.40625 22.417969 12.023438 23.289063 10.90625 24.40625 C 10.894531 24.417969 10.886719 24.425781 10.875 24.4375 C 10.585938 24.476563 10.300781 24.5 10 24.5 C 6.601563 24.5 4 21.898438 4 18.5 C 4 15.101563 6.601563 12.5 10 12.5 Z M 25 12.5 C 27.414063 12.5 29.410156 13.804688 30.375 15.78125 C 30.136719 16.644531 30 17.550781 30 18.5 C 30 19.449219 30.136719 20.355469 30.375 21.21875 C 30.300781 21.371094 30.210938 21.511719 30.125 21.65625 C 28.136719 22.019531 26.371094 22.976563 25 24.3125 C 23.628906 22.976563 21.863281 22.019531 19.875 21.65625 C 19.789063 21.511719 19.699219 21.371094 19.625 21.21875 C 19.863281 20.355469 20 19.449219 20 18.5 C 20 17.550781 19.863281 16.644531 19.625 15.78125 C 20.589844 13.804688 22.585938 12.5 25 12.5 Z M 40 12.5 C 43.398438 12.5 46 15.101563 46 18.5 C 46 21.898438 43.398438 24.5 40 24.5 C 39.6875 24.5 39.394531 24.449219 39.09375 24.40625 C 37.976563 23.289063 36.59375 22.417969 35.03125 21.9375 C 34.878906 21.710938 34.746094 21.46875 34.625 21.21875 C 34.863281 20.355469 35 19.449219 35 18.5 C 35 17.550781 34.863281 16.644531 34.625 15.78125 C 35.589844 13.804688 37.585938 12.5 40 12.5 Z M 17.8125 25.5 C 19.074219 26.796875 20.695313 27.765625 22.53125 28.21875 C 22.1875 29.242188 22 30.347656 22 31.5 C 22 32.832031 22.265625 34.097656 22.71875 35.25 C 21.636719 36.628906 19.957031 37.5 18 37.5 C 14.601563 37.5 12 34.898438 12 31.5 C 12 30.214844 12.355469 29.023438 13 28.0625 C 13.003906 28.058594 13.027344 28.066406 13.03125 28.0625 C 14.59375 27.582031 15.976563 26.710938 17.09375 25.59375 C 17.105469 25.582031 17.113281 25.574219 17.125 25.5625 C 17.351563 25.53125 17.578125 25.507813 17.8125 25.5 Z M 32.1875 25.5 C 32.421875 25.507813 32.648438 25.53125 32.875 25.5625 C 34.003906 26.703125 35.410156 27.578125 37 28.0625 C 37.644531 29.023438 38 30.214844 38 31.5 C 38 34.898438 35.398438 37.5 32 37.5 C 30.042969 37.5 28.363281 36.628906 27.28125 35.25 C 27.734375 34.097656 28 32.832031 28 31.5 C 28 30.347656 27.8125 29.242188 27.46875 28.21875 C 29.304688 27.765625 30.925781 26.796875 32.1875 25.5 Z"/></svg>