<svg xmlns="http://www.w3.org/2000/svg"  viewBox="0 0 50 50" width="50px" height="50px"><path d="M 16 5 C 13.242188 5 11 7.242188 11 10 L 11 22 L 15 23 L 11 24 L 11 34 L 28 34 C 29.652344 34 31 35.347656 31 37 L 31 40 C 31 41.9375 32 43 34 43 C 36 43 37 42 37 40 L 37 35 L 32 34 L 37 33 L 37 23 L 35 22 L 37 21 L 37 20 L 33 19 L 37 18 L 37 11 C 37 7.644531 38.433594 5.726563 41.25 5.1875 C 40.851563 5.085938 40.429688 5 40 5 Z M 43 7 C 40.121094 7 39 8.121094 39 11 L 39 14 L 44 14 C 44.554688 14 45 13.550781 45 13 L 45 10 C 45 7.648438 43 7 43 7 Z M 19 16 L 29 16 C 29.554688 16 30 16.449219 30 17 C 30 17.550781 29.554688 18 29 18 L 19 18 C 18.449219 18 18 17.550781 18 17 C 18 16.449219 18.449219 16 19 16 Z M 19 20 L 25 20 C 25.550781 20 26 20.449219 26 21 C 26 21.550781 25.550781 22 25 22 L 19 22 C 18.449219 22 18 21.550781 18 21 C 18 20.449219 18.449219 20 19 20 Z M 19 24 L 29 24 C 29.554688 24 30 24.449219 30 25 C 30 25.550781 29.554688 26 29 26 L 19 26 C 18.449219 26 18 25.550781 18 25 C 18 24.449219 18.449219 24 19 24 Z M 19 28 L 25 28 C 25.550781 28 26 28.445313 26 29 C 26 29.554688 25.550781 30 25 30 L 19 30 C 18.449219 30 18 29.554688 18 29 C 18 28.445313 18.449219 28 19 28 Z M 6 36 C 5.449219 36 5 36.445313 5 37 L 5 40 C 5 42.757813 7.242188 45 10 45 L 33 45 C 31.347656 45 29 43 29 40 L 29 37 C 29 36.445313 28.554688 36 28 36 Z"/></svg>