<svg xmlns="http://www.w3.org/2000/svg"  viewBox="0 0 50 50" width="50px" height="50px"><path d="M 28.09375 0.03125 C 24.886719 0.03125 21.675781 0.742188 18.78125 2.09375 C 18.339844 2.300781 18.125 2.78125 18.25 3.25 C 18.375 3.71875 18.796875 4.046875 19.28125 4 C 19.304688 3.996094 19.632813 3.96875 20.1875 3.96875 C 22.597656 3.96875 31.046875 4.53125 38.3125 11.71875 C 46.941406 20.253906 46.011719 30.582031 46 30.6875 C 45.953125 31.171875 46.277344 31.621094 46.75 31.75 C 46.835938 31.773438 46.914063 31.8125 47 31.8125 C 47.382813 31.8125 47.738281 31.578125 47.90625 31.21875 C 51.207031 24.066406 50.371094 15.730469 46 9.40625 L 47.8125 7.59375 C 48.203125 7.203125 48.203125 6.578125 47.8125 6.1875 L 43.8125 2.1875 C 43.4375 1.8125 42.78125 1.8125 42.40625 2.1875 L 40.625 3.96875 C 36.988281 1.40625 32.644531 0.03125 28.09375 0.03125 Z M 33.9375 10.65625 L 0.28125 44.28125 C -0.109375 44.671875 -0.109375 45.328125 0.28125 45.71875 L 4.28125 49.71875 C 4.476563 49.914063 4.742188 50 5 50 C 5.257813 50 5.523438 49.914063 5.71875 49.71875 L 39.375 16.03125 C 38.65625 15.054688 37.859375 14.070313 36.90625 13.125 C 35.9375 12.167969 34.925781 11.375 33.9375 10.65625 Z"/></svg>