<svg xmlns="http://www.w3.org/2000/svg"  viewBox="0 0 50 50" width="50px" height="50px"><path d="M 40 0 C 39.734375 0 39.46875 0.09375 39.28125 0.28125 L 15.9375 23.65625 L 20.4375 28.15625 L 42.28125 6.28125 C 42.671875 5.890625 43.328125 5.890625 43.71875 6.28125 C 44.109375 6.671875 44.109375 7.328125 43.71875 7.71875 L 21.84375 29.5625 L 26.34375 34.0625 L 49.71875 10.71875 C 49.90625 10.53125 50 10.265625 50 10 L 50 1 C 50 0.449219 49.554688 0 49 0 Z M 5 18 C 4.449219 18 4 18.449219 4 19 L 4 25 C 4 25.550781 4.449219 26 5 26 L 5.625 26 L 12 19.625 L 12 19 C 12 18.449219 11.550781 18 11 18 Z M 11.9375 22.5 L 8.5625 25.875 L 24.125 41.4375 L 27.5 38.03125 Z M 11.71875 31.84375 L 7.59375 36 L 1 36 C 0.449219 36 0 36.445313 0 37 L 0 49 C 0 49.554688 0.449219 50 1 50 L 13 50 C 13.550781 50 14 49.554688 14 49 L 14 42.40625 L 18.15625 38.28125 Z M 30.375 38 L 24 44.375 L 24 45 C 24 45.554688 24.449219 46 25 46 L 31 46 C 31.554688 46 32 45.554688 32 45 L 32 39 C 32 38.445313 31.554688 38 31 38 Z M 5 41 L 9 41 L 9 45 L 5 45 Z"/></svg>