<svg xmlns="http://www.w3.org/2000/svg"  viewBox="0 0 50 50" width="50px" height="50px"><path d="M 9 5 C 8.707031 5 8.429688 5.128906 8.242188 5.351563 L 6.332031 7.574219 C 3.539063 10.835938 2 14.996094 2 19.289063 L 2 20 L 21.140625 20 C 21.585938 18.277344 23.136719 17 25 17 C 26.863281 17 28.414063 18.277344 28.859375 20 L 48 20 L 48 19.289063 C 48 14.996094 46.460938 10.835938 43.667969 7.574219 L 41.761719 5.351563 C 41.570313 5.128906 41.292969 5 41 5 Z M 2 22 L 2 44 C 2 44.550781 2.445313 45 3 45 L 47 45 C 47.554688 45 48 44.550781 48 44 L 48 22 L 29 22 L 29 27.023438 C 29 29.234375 27.210938 31.023438 25 31.023438 C 22.789063 31.023438 21 29.234375 21 27.023438 L 21 22 Z M 24 25 L 24 27 C 24 27.550781 24.449219 28 25 28 C 25.550781 28 26 27.550781 26 27 L 26 25 Z M 4 38.089844 C 6.507813 38.511719 8.484375 40.492188 8.90625 43 L 4 43 Z M 46 38.089844 L 46 43 L 41.09375 43 C 41.515625 40.492188 43.492188 38.515625 46 38.089844 Z"/></svg>