<svg xmlns="http://www.w3.org/2000/svg"  viewBox="0 0 50 50" width="50px" height="50px"><path d="M 5 5 C 2.792969 5 1 6.792969 1 9 L 1 41 C 1 43.207031 2.792969 45 5 45 L 6 45 L 6 46 L 11 46 L 11 45 L 39 45 L 39 46 L 44 46 L 44 45 L 45 45 C 47.207031 45 49 43.207031 49 41 L 49 9 C 49 6.792969 47.207031 5 45 5 Z M 7 10 L 43 10 C 43.554688 10 44 10.449219 44 11 L 44 39 C 44 39.550781 43.554688 40 43 40 L 7 40 C 6.445313 40 6 39.550781 6 39 L 6 11 C 6 10.449219 6.445313 10 7 10 Z M 8 12 L 8 22.59375 L 9.71875 24.28125 C 10.109375 24.671875 10.109375 25.328125 9.71875 25.71875 L 8 27.40625 L 8 38 L 42 38 L 42 12 Z M 23.96875 15.0625 C 23.980469 15.0625 23.988281 15.0625 24 15.0625 L 24 16 C 23.996094 16.359375 24.183594 16.695313 24.496094 16.878906 C 24.808594 17.058594 25.191406 17.058594 25.503906 16.878906 C 25.816406 16.695313 26.003906 16.359375 26 16 L 26 15.0625 C 28.015625 15.261719 29.859375 16.035156 31.34375 17.25 L 30.65625 17.9375 C 30.359375 18.179688 30.222656 18.566406 30.308594 18.941406 C 30.394531 19.3125 30.6875 19.605469 31.058594 19.691406 C 31.433594 19.777344 31.820313 19.640625 32.0625 19.34375 L 32.75 18.65625 C 33.964844 20.140625 34.738281 21.984375 34.9375 24 L 34 24 C 33.96875 24 33.9375 24 33.90625 24 C 33.875 24 33.84375 24 33.8125 24 C 33.261719 24.050781 32.855469 24.542969 32.90625 25.09375 C 32.957031 25.644531 33.449219 26.050781 34 26 L 34.9375 26 C 34.738281 28.015625 33.964844 29.859375 32.75 31.34375 L 32.0625 30.65625 C 31.855469 30.433594 31.554688 30.320313 31.25 30.34375 C 31.21875 30.34375 31.1875 30.34375 31.15625 30.34375 C 30.78125 30.410156 30.480469 30.683594 30.375 31.046875 C 30.269531 31.414063 30.378906 31.804688 30.65625 32.0625 L 31.34375 32.75 C 29.859375 33.964844 28.015625 34.738281 26 34.9375 L 26 34 C 26.011719 33.710938 25.894531 33.433594 25.6875 33.238281 C 25.476563 33.039063 25.191406 32.941406 24.90625 32.96875 C 24.863281 32.976563 24.820313 32.988281 24.78125 33 C 24.316406 33.105469 23.988281 33.523438 24 34 L 24 34.9375 C 21.984375 34.738281 20.140625 33.964844 18.65625 32.75 L 19.34375 32.0625 C 19.640625 31.777344 19.730469 31.335938 19.570313 30.957031 C 19.414063 30.578125 19.035156 30.335938 18.625 30.34375 C 18.59375 30.34375 18.5625 30.34375 18.53125 30.34375 C 18.304688 30.375 18.09375 30.488281 17.9375 30.65625 L 17.25 31.34375 C 16.035156 29.859375 15.261719 28.015625 15.0625 26 L 16 26 C 16.359375 26.003906 16.695313 25.816406 16.878906 25.503906 C 17.058594 25.191406 17.058594 24.808594 16.878906 24.496094 C 16.695313 24.183594 16.359375 23.996094 16 24 L 15.0625 24 C 15.261719 21.984375 16.035156 20.140625 17.25 18.65625 L 17.9375 19.34375 C 18.179688 19.640625 18.566406 19.777344 18.941406 19.691406 C 19.3125 19.605469 19.605469 19.3125 19.691406 18.941406 C 19.777344 18.566406 19.640625 18.179688 19.34375 17.9375 L 18.65625 17.25 C 20.132813 16.042969 21.96875 15.265625 23.96875 15.0625 Z M 25 20 C 22.25 20 20 22.25 20 25 C 20 27.75 22.25 30 25 30 C 27.75 30 30 27.75 30 25 C 30 22.25 27.75 20 25 20 Z M 25 22 C 26.667969 22 28 23.332031 28 25 C 28 26.667969 26.667969 28 25 28 C 23.332031 28 22 26.667969 22 25 C 22 23.332031 23.332031 22 25 22 Z"/></svg>